<?xml version="1.0" encoding="utf-8"?>
<!-- Generator: Adobe Illustrator 16.0.0, SVG Export Plug-In . SVG Version: 6.00 Build 0)  -->
<!DOCTYPE svg PUBLIC "-//W3C//DTD SVG 1.1//EN" "http://www.w3.org/Graphics/SVG/1.1/DTD/svg11.dtd">
<svg version="1.1" id="Layer_1" xmlns="http://www.w3.org/2000/svg" xmlns:xlink="http://www.w3.org/1999/xlink" x="0px" y="0px"
	 width="1000px" height="1000.01px" viewBox="0 0 1000 1000.01" enable-background="new 0 0 1000 1000.01" xml:space="preserve">
<path fill="#F05556" d="M642.379,307.269L469.635,582.331H278.017l44.21-68.968h114.843l43.874-68.917H215.438l-43.863,68.917
	h62.897l-87.263,137.688h364.188l134.515-212.137l49.05,74.449h-44.227l-41.883,68.968h130.961l45.479,68.721h83.54L642.379,307.269
	L642.379,307.269z M584.627,306.61H302.056l-42.88,68.901h282.248L584.627,306.61L584.627,306.61z M500,1000.01
	c-275.707,0-500-224.307-500-500.007C0,224.3,224.293,0,500,0c275.696,0,500,224.3,500,500.003
	C1000,775.704,775.696,1000.01,500,1000.01L500,1000.01L500,1000.01z"/>
</svg>
